HIERARCHY
ROOT Hips
{
	OFFSET -21.947001 39.810204 44.525997
	CHANNELS 6 Xposition Yposition Zposition Zrotation Xrotation Yrotation
	JOINT Chest
	{
		OFFSET -0.201599 0.334099 6.453201
		CHANNELS 6 Xposition Yposition Zposition Zrotation Xrotation Yrotation
		JOINT Chest2
		{
			OFFSET 0.000000 0.000000 3.568001
			CHANNELS 6 Xposition Yposition Zposition Zrotation Xrotation Yrotation
			JOINT Neck
			{
				OFFSET 0.000000 0.000000 8.296402
				CHANNELS 6 Xposition Yposition Zposition Zrotation Xrotation Yrotation
				JOINT Head
				{
					OFFSET 0.000000 0.000000 2.173901
					CHANNELS 6 Xposition Yposition Zposition Zrotation Xrotation Yrotation
					End Site
					{
						OFFSET 0.000000 0.000000 7.891998
					}
				}
			}
			JOINT LeftCollar
			{
				OFFSET 1.927601 0.221401 6.049000
				CHANNELS 6 Xposition Yposition Zposition Zrotation Xrotation Yrotation
				JOINT LeftShoulder
				{
					OFFSET 4.959700 0.000000 0.000000
					CHANNELS 6 Xposition Yposition Zposition Zrotation Xrotation Yrotation
					JOINT LeftElbow
					{
						OFFSET 0.000000 0.000000 -8.654202
						CHANNELS 6 Xposition Yposition Zposition Zrotation Xrotation Yrotation
						JOINT LeftWrist
						{
							OFFSET 0.000000 0.000000 -13.864101
							CHANNELS 6 Xposition Yposition Zposition Zrotation Xrotation Yrotation
							End Site
							{
								OFFSET 0.000000 0.000000 -2.173901
							}
						}
					}
				}
			}
			JOINT RightCollar
			{
				OFFSET -3.155701 -0.764999 6.687801
				CHANNELS 6 Xposition Yposition Zposition Zrotation Xrotation Yrotation
				JOINT RightShoulder
				{
					OFFSET -3.592899 0.000000 0.000000
					CHANNELS 6 Xposition Yposition Zposition Zrotation Xrotation Yrotation
					JOINT RightElbow
					{
						OFFSET 0.000000 0.000000 -10.352398
						CHANNELS 6 Xposition Yposition Zposition Zrotation Xrotation Yrotation
						JOINT RightWrist
						{
							OFFSET 0.000000 0.000000 -12.750301
							CHANNELS 6 Xposition Yposition Zposition Zrotation Xrotation Yrotation
							End Site
							{
								OFFSET 0.000000 0.000000 -2.173901
							}
						}
					}
				}
			}
		}
	}
	JOINT LeftHip
	{
		OFFSET 2.460600 -0.518101 -2.735500
		CHANNELS 6 Xposition Yposition Zposition Zrotation Xrotation Yrotation
		JOINT LeftKnee
		{
			OFFSET 0.000000 -0.000004 -17.005899
			CHANNELS 6 Xposition Yposition Zposition Zrotation Xrotation Yrotation
			JOINT LeftAnkle
			{
				OFFSET 0.000000 0.000000 -19.194401
				CHANNELS 6 Xposition Yposition Zposition Zrotation Xrotation Yrotation
				End Site
				{
					OFFSET 0.000000 -8.134600 0.000000
				}
			}
		}
	}
	JOINT RightHip
	{
		OFFSET -3.115499 -0.679600 -2.320301
		CHANNELS 6 Xposition Yposition Zposition Zrotation Xrotation Yrotation
		JOINT RightKnee
		{
			OFFSET 0.000000 -0.000004 -17.680401
			CHANNELS 6 Xposition Yposition Zposition Zrotation Xrotation Yrotation
			JOINT RightAnkle
			{
				OFFSET 0.000000 0.000000 -16.993797
				CHANNELS 6 Xposition Yposition Zposition Zrotation Xrotation Yrotation
				End Site
				{
					OFFSET 0.000000 -8.842300 0.000000
				}
			}
		}
	}
}
MOTION
Frames: 7
Frame Time: 0.041667
-27.336599 24.390905 46.367493 2558.166593 1.484525 -4.931107 -0.201595 0.334099 6.453205 -4.225111 9.983548 10.829769 -0.000001 -0.000001 3.567994 0.281328 -7.491682 -0.929227 -0.000001 0.000003 8.296396 196.852240 -186.137190 172.958531 -0.000001 -0.000009 2.173906 -0.479126 -5.198769 2.897773 1.927601 0.221409 6.048999 -14.639816 5.040715 -11.234693 4.959698 0.000004 -0.000004 177.174738 202.223473 19.231024 -0.000001 0.000004 -8.654194 62.283894 -21.597929 13.581909 0.000007 -0.000002 -13.864101 4201.097018 -148.024488 204.102855 -3.155708 -0.764995 6.687802 31.188153 7.444668 17.284323 -3.592891 0.000008 -0.000002 -178.218842 194.573826 332.923638 0.000001 0.000001 -10.352399 -395.789190 -18.159146 -354.382289 0.000004 0.000003 -12.750304 -32.000891 204.951451 -143.951960 2.460602 -0.518103 -2.735500 -228.733596 -6.927661 106.295686 -0.000002 -0.000003 -17.005898 15.974634 198.320171 -72.499733 -0.000004 0.000003 -19.194391 612.464210 160.921046 244.564649 -3.115492 -0.679593 -2.320303 -360.445038 -6.944608 2.783281 -0.000003 0.000001 -17.680395 -475.630168 161.094547 -201.995441 0.000001 -0.000005 -16.993793 1020.597465 21.622890 -385.614094
-27.482094 24.405207 46.395794 2558.059496 1.584870 -5.138657 -0.201599 0.334097 6.453196 -4.138231 9.993917 10.932417 0.000002 0.000001 3.568002 0.235587 -7.537685 -0.940151 0.000002 0.000003 8.296403 196.619413 -186.030065 173.391838 -0.000003 0.000002 2.173900 -0.324240 -5.152813 2.776129 1.927601 0.221405 6.049001 -14.757126 5.138408 -11.101894 4.959699 0.000004 0.000001 177.111108 202.494277 18.899922 -0.000001 0.000004 -8.654193 62.453447 -21.626559 13.719886 0.000001 -0.000002 -13.864106 4201.089150 -148.086520 204.060371 -3.155704 -0.765000 6.687799 31.212578 7.536971 17.442339 -3.592886 -0.000000 0.000010 -177.785548 194.729718 332.983579 -0.000005 -0.000004 -10.352405 -396.169960 -18.117813 -354.413598 0.000002 -0.000005 -12.750308 -32.439789 204.986736 -144.328919 2.460601 -0.518105 -2.735510 -228.622742 -6.783828 106.551142 -0.000006 -0.000004 -17.005899 16.260216 198.881038 -72.890939 -0.000005 0.000003 -19.194403 612.947241 161.335926 244.554869 -3.115500 -0.679592 -2.320310 -360.526290 -7.215458 2.977869 -0.000004 -0.000005 -17.680401 -475.324120 161.263553 -202.195401 0.000004 -0.000005 -16.993797 1020.598011 21.513433 -386.291157
-27.624397 24.417707 46.425690 2557.957426 1.676402 -5.293245 -0.201597 0.334096 6.453202 -4.107124 9.983864 10.983969 -0.000002 0.000005 3.568003 0.188549 -7.573941 -0.950081 0.000000 -0.000004 8.296390 196.373375 -185.962637 173.868940 -0.000003 -0.000006 2.173899 -0.108480 -5.059957 2.597471 1.927605 0.221401 6.048985 -14.781865 5.143738 -10.934131 4.959700 -0.000001 0.000009 177.041782 202.653038 18.618857 0.000003 -0.000006 -8.654191 62.552491 -21.589528 13.753578 0.000001 -0.000003 -13.864108 4201.127617 -148.179643 204.163302 -3.155701 -0.765002 6.687793 31.249126 7.629446 17.588128 -3.592900 0.000000 0.000014 -177.409383 194.895022 333.028413 -0.000002 0.000003 -10.352411 -396.611846 -18.071668 -354.470562 0.000004 -0.000005 -12.750304 -32.493419 204.979154 -144.649077 2.460596 -0.518103 -2.735496 -228.558620 -6.672840 106.738037 -0.000005 -0.000002 -17.005901 16.300284 199.079674 -73.345850 -0.000005 0.000003 -19.194401 613.107778 161.687872 244.457771 -3.115498 -0.679596 -2.320290 -360.634425 -7.462926 3.099218 0.000001 -0.000001 -17.680397 -475.012882 161.420798 -202.349914 0.000005 -0.000005 -16.993793 1020.585444 21.420056 -386.892077
-27.761894 24.426708 46.453888 2557.856448 1.755522 -5.450945 -0.201600 0.334091 6.453201 -4.130281 9.952696 11.040880 -0.000000 0.000003 3.567993 0.148487 -7.605602 -0.958774 -0.000001 0.000000 8.296398 196.200599 -185.946040 174.328598 -0.000006 -0.000008 2.173890 0.107247 -4.938181 2.421343 1.927603 0.221408 6.048997 -14.753957 5.085394 -10.727070 4.959702 0.000004 0.000010 176.973220 202.722391 18.369857 -0.000001 0.000003 -8.654196 62.584955 -21.515659 13.726432 -0.000001 -0.000001 -13.864105 4201.171768 -148.314334 204.379149 -3.155701 -0.764994 6.687801 31.266267 7.687970 17.692598 -3.592895 0.000000 0.000002 -177.030703 195.043442 333.113462 -0.000001 -0.000005 -10.352394 -396.994254 -18.049642 -354.533372 0.000006 -0.000006 -12.750302 -32.308318 204.955139 -144.925085 2.460601 -0.518104 -2.735506 -228.572130 -6.560475 106.812363 -0.000008 0.000005 -17.005899 16.181656 198.872938 -73.834844 -0.000008 0.000001 -19.194397 612.964563 161.943089 244.113693 -3.115497 -0.679603 -2.320300 -360.686854 -7.674886 3.215874 -0.000001 -0.000001 -17.680401 -474.754647 161.566185 -202.453364 0.000007 -0.000000 -16.993793 1020.540310 21.356366 -387.353797
-27.894001 24.431904 46.476189 2557.756126 1.820852 -5.623967 -0.201599 0.334099 6.453204 -4.213238 9.900349 11.120304 -0.000002 0.000001 3.567999 0.125291 -7.638039 -0.965761 -0.000001 0.000003 8.296408 196.149127 -185.980396 174.727126 0.000002 0.000000 2.173899 0.298125 -4.806872 2.283112 1.927598 0.221406 6.049005 -14.691752 4.980858 -10.492847 4.959702 -0.000005 0.000005 176.923387 202.703171 18.146076 -0.000002 -0.000003 -8.654192 62.549274 -21.420090 13.664837 0.000000 -0.000003 -13.864098 4201.238649 -148.483463 204.677970 -3.155706 -0.764996 6.687804 33.855332 8.531892 18.863934 -3.592895 -0.000001 0.000007 -179.729693 195.190783 331.722453 -0.000005 -0.000002 -10.352402 -397.232109 -18.064607 -354.588615 0.000002 -0.000008 -12.750301 -32.144188 204.905306 -145.094351 2.460599 -0.518103 -2.735499 -228.565532 -6.430346 106.820607 0.000000 0.000002 -17.005894 16.030029 198.549815 -74.290718 -0.000005 0.000004 -19.194405 612.691574 162.137858 243.694538 -3.115498 -0.679595 -2.320300 -360.783323 -7.885524 3.272923 0.000002 0.000000 -17.680401 -474.521601 161.599913 -202.498020 0.000007 -0.000003 -16.993795 1020.520202 21.341110 -387.578948
-28.020603 24.434206 46.489296 2557.672197 1.872271 -5.811146 -0.201602 0.334098 6.453204 -4.349154 9.832151 11.213170 -0.000002 0.000000 3.568000 0.117838 -7.671239 -0.971267 0.000001 0.000000 8.296406 196.241403 -186.069024 175.031753 0.000000 0.000001 2.173898 0.427731 -4.703171 2.213528 1.927603 0.221409 6.049005 -14.595141 4.831462 -10.229789 4.959700 -0.000001 0.000011 176.868473 202.594489 17.931847 -0.000001 0.000000 -8.654208 62.480460 -21.303862 13.598704 -0.000001 0.000001 -13.864102 4201.302033 -148.669080 204.996749 -3.155701 -0.764998 6.687803 33.798488 8.463398 18.860007 -3.592894 0.000000 0.000015 -179.282057 195.254222 331.953095 -0.000003 0.000001 -10.352403 -397.317213 -18.120929 -354.643202 0.000004 -0.000005 -12.750309 -32.081088 204.876852 -145.194672 2.460597 -0.518102 -2.735496 -228.582963 -6.288296 106.764073 -0.000002 0.000003 -17.005898 15.848585 198.131384 -74.701574 -0.000002 0.000000 -19.194393 612.295313 162.325333 243.225222 -3.115501 -0.679598 -2.320298 -360.992874 -8.127182 3.294666 0.000001 0.000000 -17.680397 -474.281998 161.519671 -202.566923 0.000004 0.000001 -16.993793 1020.550255 21.324836 -387.566763
-28.141796 24.435207 46.492294 2557.611873 1.912173 -6.008593 -0.201598 0.334105 6.453206 -4.521100 9.752818 11.313013 -0.000001 0.000004 3.567998 0.124315 -7.705776 -0.975401 0.000002 0.000007 8.296403 196.481538 -186.198292 175.215389 -0.000006 0.000006 2.173900 0.454404 -4.642305 2.235264 1.927604 0.221408 6.048999 -14.511401 4.589576 -10.029535 4.959702 -0.000000 0.000014 176.857681 202.340024 17.837365 -0.000001 0.000002 -8.654197 62.405150 -21.180190 13.521920 -0.000003 0.000001 -13.864098 4201.351866 -148.856760 205.280379 -3.155703 -0.765000 6.687800 33.689474 8.350313 18.820453 -3.592897 -0.000008 0.000003 -178.809284 195.288878 332.252285 0.000000 -0.000002 -10.352398 -397.206783 -18.200258 -354.688992 0.000000 0.000008 -12.750308 -32.211900 204.881114 -145.255953 2.460598 -0.518095 -2.735494 -228.598126 -6.131645 106.661839 -0.000003 -0.000007 -17.005898 15.695592 197.776228 -75.047605 -0.000005 -0.000001 -19.194397 611.951290 162.465188 242.810793 -3.115493 -0.679587 -2.320292 -361.141471 -8.333731 3.277445 -0.000001 -0.000002 -17.680401 -474.128182 161.378409 -202.576526 0.000003 -0.000002 -16.993795 1020.558560 21.330331 -387.452644
